<svg width="65" height="70" viewBox="0 0 65 70" fill="none" xmlns="http://www.w3.org/2000/svg">
<path d="M32.5 39.375C30.4913 39.375 28.5277 38.7335 26.8575 37.5317C25.1873 36.3299 23.8856 34.6217 23.1169 32.6231C22.3482 30.6245 22.147 28.4254 22.5389 26.3037C22.9308 24.182 23.8981 22.2332 25.3185 20.7035C26.7388 19.1739 28.5485 18.1322 30.5186 17.7102C32.4887 17.2881 34.5308 17.5047 36.3866 18.3326C38.2424 19.1604 39.8286 20.5623 40.9446 22.361C42.0606 24.1596 42.6563 26.2743 42.6563 28.4375C42.653 31.3372 41.582 34.1172 39.678 36.1677C37.774 38.2181 35.1926 39.3715 32.5 39.375ZM32.5 21.875C31.2948 21.875 30.1166 22.2599 29.1145 22.981C28.1124 23.7021 27.3313 24.727 26.8701 25.9261C26.4089 27.1253 26.2882 28.4448 26.5233 29.7178C26.7585 30.9908 27.3388 32.1601 28.1911 33.0779C29.0433 33.9957 30.1291 34.6207 31.3112 34.8739C32.4932 35.1271 33.7185 34.9972 34.832 34.5005C35.9455 34.0038 36.8972 33.1626 37.5668 32.0834C38.2364 31.0042 38.5938 29.7354 38.5938 28.4375C38.5921 26.6976 37.9496 25.0294 36.8072 23.799C35.6647 22.5687 34.1157 21.8767 32.5 21.875Z" fill="black" fill-opacity="0.25"/>
<path d="M32.5 65.625L15.3644 43.8616C15.1263 43.5348 14.8907 43.2059 14.6575 42.875C11.7305 38.7226 10.1492 33.6508 10.1563 28.4375C10.1563 22.0557 12.5103 15.9353 16.7006 11.4227C20.8909 6.91015 26.5741 4.375 32.5 4.375C38.426 4.375 44.1092 6.91015 48.2994 11.4227C52.4897 15.9353 54.8438 22.0557 54.8438 28.4375C54.8509 33.6484 53.2703 38.718 50.3446 42.8684L50.3425 42.875C50.3425 42.875 49.7331 43.7369 49.6417 43.8528L32.5 65.625ZM17.8994 40.2391C17.9035 40.2391 18.3747 40.9128 18.4824 41.0572L32.5 58.8613L46.536 41.0331C46.6253 40.9128 47.1006 40.2347 47.1027 40.2325C49.4938 36.8399 50.786 32.6966 50.7813 28.4375C50.7813 23.2161 48.8552 18.2085 45.4268 14.5163C41.9984 10.8242 37.3485 8.75 32.5 8.75C27.6515 8.75 23.0016 10.8242 19.5732 14.5163C16.1448 18.2085 14.2188 23.2161 14.2188 28.4375C14.2145 32.6993 15.5061 36.845 17.8994 40.2391Z" fill="black" fill-opacity="0.25"/>
</svg>
