<svg width="454" height="69" viewBox="0 0 454 69" fill="none" xmlns="http://www.w3.org/2000/svg">
<rect width="454" height="68.1" rx="10" fill="#FEE500"/>
<path d="M49.9399 32.1806C49.9399 38.2523 43.5032 43.1745 35.5632 43.1745C27.6232 43.1745 21.1865 38.2523 21.1865 32.1806C21.1865 26.1088 27.6232 21.1866 35.5632 21.1866C43.5032 21.1866 49.9399 26.1088 49.9399 32.1806Z" fill="#181600"/>
<path d="M30.0497 35.4328L43.2398 37.0671L25.9354 48.0709L30.0497 35.4328Z" fill="#181600"/>
<path d="M144.527 27.92C144.513 33.6134 141.847 37.8 136.527 40.48L135.427 39.12C138.347 37.7867 140.413 35.92 141.627 33.52L136.027 34.12L135.707 32.56L142.207 32.06C142.473 31.22 142.627 30.34 142.667 29.42H136.407V27.92H144.527ZM148.947 26.08V33.12H151.727V34.58H148.947V43.56H147.187V26.08H148.947ZM161.831 27.92C161.818 33.6134 159.151 37.8 153.831 40.48L152.731 39.12C155.651 37.7867 157.718 35.92 158.931 33.52L153.331 34.12L153.011 32.56L159.511 32.06C159.778 31.22 159.931 30.34 159.971 29.42H153.711V27.92H161.831ZM166.251 26.08V33.12H169.031V34.58H166.251V43.56H164.491V26.08H166.251ZM184.456 32.02C184.456 33.38 183.943 34.5 182.916 35.38C181.903 36.2467 180.536 36.7467 178.816 36.88V39.84H185.836V41.3H170.056V39.84H177.036V36.86C175.329 36.7134 173.969 36.2067 172.956 35.34C171.943 34.4734 171.436 33.3667 171.436 32.02C171.436 30.5667 172.029 29.3934 173.216 28.5C174.416 27.6067 175.989 27.16 177.936 27.16C179.909 27.16 181.489 27.6067 182.676 28.5C183.863 29.38 184.456 30.5534 184.456 32.02ZM181.336 34.46C182.203 33.8334 182.636 33.02 182.636 32.02C182.636 31.02 182.203 30.2067 181.336 29.58C180.483 28.9534 179.349 28.64 177.936 28.64C176.536 28.64 175.403 28.9534 174.536 29.58C173.683 30.2067 173.256 31.02 173.256 32.02C173.256 33.02 173.683 33.8334 174.536 34.46C175.403 35.0867 176.536 35.4 177.936 35.4C179.336 35.4 180.469 35.0867 181.336 34.46ZM201.161 33.72H196.121V35.36H203.141V36.8H187.361V35.36H194.341V33.72H189.341V26.8H201.081V28.22H191.121V29.56H200.821V30.94H191.121V32.3H201.161V33.72ZM189.181 38.22H201.081V43.64H199.301V39.66H189.181V38.22ZM220.445 41.2H204.665V39.76H220.445V41.2ZM218.865 32.1C218.865 33.46 218.285 34.56 217.125 35.4C215.965 36.2267 214.439 36.64 212.545 36.64C210.665 36.64 209.145 36.2267 207.985 35.4C206.839 34.56 206.265 33.46 206.265 32.1C206.265 30.7534 206.839 29.66 207.985 28.82C209.145 27.98 210.665 27.56 212.545 27.56C214.439 27.56 215.965 27.98 217.125 28.82C218.285 29.66 218.865 30.7534 218.865 32.1ZM217.065 32.1C217.065 31.22 216.652 30.5067 215.825 29.96C214.999 29.4 213.905 29.12 212.545 29.12C211.199 29.12 210.112 29.4 209.285 29.96C208.472 30.5067 208.065 31.22 208.065 32.1C208.065 32.9934 208.472 33.7134 209.285 34.26C210.112 34.8067 211.199 35.08 212.545 35.08C213.905 35.08 214.999 34.8067 215.825 34.26C216.652 33.7134 217.065 32.9934 217.065 32.1ZM237.75 41.34H221.97V39.9H228.93V37.14H223.87V31.52H234.03V28.96H223.83V27.52H235.79V32.96H225.63V35.7H236.27V37.14H230.71V39.9H237.75V41.34ZM258.509 26.08V32.82H260.889V34.28H258.509V43.56H256.769V26.08H258.509ZM249.629 39.28H244.929V27.78H246.529V32.16H248.029V27.76H249.629V39.28ZM248.029 37.86V33.56H246.529V37.86H248.029ZM255.409 39.3H250.709V27.76H252.289V32.14H253.809V27.74H255.409V39.3ZM253.809 37.88V33.56H252.289V37.88H253.809ZM275.893 34.46H263.933V29.92H273.733V28.2H263.853V26.82H275.493V31.26H265.693V33.06H275.893V34.46ZM277.613 37.42H261.833V35.98H277.613V37.42ZM275.733 43.06H263.873V38.64H265.633V41.64H275.733V43.06ZM300.172 41.34H284.392V39.9H291.352V37.14H286.292V31.52H296.452V28.96H286.252V27.52H298.212V32.96H288.052V35.7H298.692V37.14H293.132V39.9H300.172V41.34ZM317.477 41.02H301.697V39.58H317.477V41.02ZM315.377 28.06C315.377 32.5267 315.103 35.9467 314.557 38.32L312.837 38.1C313.05 37.3 313.223 36.02 313.357 34.26C313.503 32.4867 313.577 30.8934 313.577 29.48H303.337V28.06H315.377ZM333.341 38.78H331.561V26.08H333.341V38.78ZM333.741 43.02H321.841V37.58H323.621V41.6H333.741V43.02ZM320.721 28.52C321.601 27.68 322.715 27.26 324.061 27.26C325.408 27.26 326.521 27.6734 327.401 28.5C328.295 29.3267 328.741 30.3667 328.741 31.62C328.741 32.8734 328.301 33.9 327.421 34.7C326.541 35.4867 325.421 35.88 324.061 35.88C322.715 35.88 321.601 35.4867 320.721 34.7C319.841 33.9 319.401 32.88 319.401 31.64C319.401 30.3867 319.841 29.3467 320.721 28.52ZM324.061 28.78C323.248 28.78 322.575 29.0467 322.041 29.58C321.521 30.1134 321.261 30.7867 321.261 31.6C321.261 32.4 321.521 33.0667 322.041 33.6C322.575 34.1334 323.248 34.4 324.061 34.4C324.915 34.4 325.595 34.14 326.101 33.62C326.608 33.1 326.861 32.4334 326.861 31.62C326.861 30.78 326.608 30.1 326.101 29.58C325.595 29.0467 324.915 28.78 324.061 28.78Z" fill="black"/>
</svg>
