<svg width="55" height="55" viewBox="0 0 55 55" fill="none" xmlns="http://www.w3.org/2000/svg">
<path d="M42.9144 51.5644H3.43315V8.61916H27.551L31.0219 5.27287L30.9327 5.18354H3.43315C1.53719 5.18354 0 6.72184 0 8.61916V51.5644C0 53.4617 1.53719 55 3.43315 55H42.9144C44.8103 55 46.3475 53.4617 46.3475 51.5644V26.4062L42.9144 29.6855V51.5644ZM52.2955 2.23922C50.7463 0.753313 49.0366 0 47.2127 0C44.3581 0 42.2759 1.84493 41.7094 2.41014C40.906 3.20377 18.1511 25.9416 18.1511 25.9416C17.9726 26.1236 17.8421 26.3461 17.7752 26.5935C17.1589 28.8721 14.07 38.9935 14.0391 39.094C13.8794 39.6127 14.0219 40.1779 14.4038 40.555C14.5369 40.6886 14.695 40.7946 14.8691 40.8669C15.0432 40.9391 15.2299 40.9761 15.4184 40.9759C15.566 40.9759 15.7145 40.9544 15.8604 40.9089C15.9651 40.8737 26.401 37.4964 28.1184 36.9837C28.345 36.9167 28.5501 36.7939 28.7201 36.6281C29.8041 35.5579 50.7197 14.9519 52.4122 13.2023C54.1623 11.3952 55.0325 9.51672 54.9991 7.61424C54.9674 5.73496 54.0541 3.92611 52.2955 2.23922ZM49.9464 10.811C48.9911 11.7971 41.5111 19.1939 27.7141 32.7956L26.6584 33.8374C25.0766 34.327 21.2889 35.5449 18.4257 36.4691C19.3475 33.4226 20.4538 29.7421 20.9473 28.0012C23.8956 25.0552 43.3907 5.57606 44.1313 4.84427C44.2756 4.69993 45.5913 3.43476 47.2126 3.43476C48.1327 3.43476 49.0193 3.85476 49.9197 4.71882C50.996 5.75208 51.5504 6.74498 51.5659 7.67259C51.5831 8.6277 51.0381 9.68329 49.9464 10.811Z" fill="black" fill-opacity="0.25"/>
</svg>
