<svg width="15" height="19" viewBox="0 0 15 19" fill="none" xmlns="http://www.w3.org/2000/svg">
<path d="M15 7.30511C15 3.4484 11.6395 0.324219 7.5 0.324219C3.36049 0.324219 0 3.4484 0 7.30511C0 8.35297 0.24949 9.34747 0.697555 10.2401C0.89613 10.6379 1.13035 11.0114 1.39511 11.3607L7.5 18.264L13.6049 11.3607C13.8747 11.0114 14.109 10.6379 14.3024 10.2449C14.7454 9.35232 15 8.35782 15 7.30996V7.30511ZM7.5 10.7689C5.46843 10.7689 3.82383 9.20193 3.82383 7.2663C3.82383 5.33067 5.46843 3.76373 7.5 3.76373C9.53157 3.76373 11.1762 5.33067 11.1762 7.2663C11.1762 9.20193 9.53157 10.7689 7.5 10.7689Z" fill="white"/>
</svg>
