<svg width="29" height="36" viewBox="0 0 29 36" fill="none" xmlns="http://www.w3.org/2000/svg">
<rect x="0.970947" y="0.0126953" width="27.7326" height="29.0794" rx="10" fill="#FF8B8B"/>
<path d="M14.898 19.127C13.1968 19.127 11.94 18.124 11.9146 16.7021H12.5875C12.6129 17.7812 13.6158 18.5176 14.898 18.5176C16.2691 18.5176 17.2213 17.667 17.234 16.5625C17.2213 15.3818 16.2183 14.5693 14.6695 14.5693H14.2633V13.9727H14.6695C15.9644 13.9727 16.9293 13.2363 16.9293 12.1064C16.9293 11.04 16.1168 10.2783 14.898 10.2783C13.7174 10.2783 12.7906 11.0146 12.7779 12.1064H12.1304C12.1558 10.6719 13.3492 9.68164 14.9107 9.68164C16.5103 9.68164 17.5767 10.748 17.564 12.0811C17.5767 13.1475 16.9166 13.9346 15.9009 14.2266V14.2773C17.1197 14.5312 17.8814 15.3945 17.8814 16.5625C17.8814 18.0225 16.6246 19.127 14.898 19.127Z" fill="black"/>
</svg>
